<svg id="Layer_1" data-name="Layer 1" xmlns="http://www.w3.org/2000/svg" viewBox="0 0 675.56 279.57"><defs><style>.cls-1{fill:#545c56;}</style></defs><path class="cls-1" d="M235.8,166.3l28.76,38.37q24.75,33.06,49.44,66.14c2.45,3.3,3.63,3.74,6.38,0,20.77-28,41.79-55.9,62.73-83.82l15.83-21.16c4.2,20.74,11.71,38.75,23.66,54.76C437.8,241,456.51,257,479.81,267.68c21.53,9.91,44.23,12.3,67.31,11a140.88,140.88,0,0,0,34.1-6.67c25-7.86,45.34-23.11,62.22-43,19.3-22.74,30.53-48.85,32-78.83.24-4.7-.2-9.44-.4-14.15-.29-6.55-.7-13.09-1-19.63-.14-3.74-2-4.65-5.57-4.64q-63.89.17-127.77,0c-3.89,0-4.87,1.4-4.83,5,.14,15.21.19,30.42,0,45.63-.06,4,1.2,5.15,5.19,5.12,22.47-.18,45-.09,67.43-.07,1.77,0,3.54.16,6.24.3-1.13,2.41-1.87,4-2.62,5.62-18.67,39.91-61.66,59.15-103.28,44.83A82.15,82.15,0,0,1,453.32,141c-.24-44.78-.06-89.57-.06-134.36V1.51l-1.36-.26L317.12,180.68C272,120.55,227.47,61.19,182.94,1.82l-1.45.61c-.15,2.1-.44,4.2-.45,6.31q0,64.38,0,128.78c0,14-2.08,27.68-9,40-14.49,25.74-35.77,41.78-65.88,44.65-18.37,1.75-35.61-1.62-51.26-11.58-5.61-3.57-10.77-7.84-16.67-12.18Q19.79,217.05,1.3,235.72c-1.82,1.82-1.75,2.87.33,4.79,20.5,18.94,44.07,31.4,71.73,36.52a141.58,141.58,0,0,0,57.27-1.35c22.27-5,41.82-15.46,58.8-30.67,19.8-17.74,34.9-38.57,42.1-64.55C232.76,176,234.18,171.64,235.8,166.3ZM634.7,40.66c-1.59-1.49-3.12-3-4.75-4.46C609.46,18.49,586.29,6.71,559.32,2c-18.71-3.28-37-2-55.24,1.69-14.76,3-28.39,9.12-41.24,17.07-3.56,2.21-5.17,4.53-5.15,8.84.17,25.17,0,50.33.05,75.5a29,29,0,0,0,.8,4.27c12.71-27.18,32.18-45.54,60.82-51.17S573.77,59.84,595,80.78ZM175.71,109a20.92,20.92,0,0,0,.67-3c0-26.35.07-52.7-.14-79.05a7.08,7.08,0,0,0-3.18-5.07c-7.89-4.43-15.68-9.31-24.1-12.45C124.7.37,99.81-2.46,74,2.24c-27.66,5-51.25,17.37-71.91,36.08C-.69,40.81-.24,42,2,44.18q9.59,9.3,18.88,18.92c5.82,6,11.48,12.15,17.57,18.62,21.91-21.74,47.6-29,76-23.63C143.25,63.56,162.81,81.92,175.71,109Zm222.05,73.13-.76,0c-.12,1.79-.33,3.58-.33,5.36q0,26.61,0,53.21,0,17,0,33.95c0,2.53.14,4.77,3.62,4.76,16.55,0,33.11,0,49.66-.18,1.1,0,3-2,3.12-3.19.37-4.7,0-9.45.22-14.17.17-3.23-1.05-5.14-3.6-7.13-18.3-14.32-33.32-31.45-43.41-52.55C403.17,195.68,400.59,188.86,397.76,182.15Zm-160.66.48-1.08-.15c-.84,2.63-1.54,5.32-2.56,7.88-9,22.76-22.27,42.86-41.43,57.94-9.25,7.27-12.25,14.84-11.12,25.67.41,4,1.21,5.65,5.57,5.58,15-.24,30.07-.3,45.1,0,4.85.11,5.87-1.57,5.85-6.05-.18-28.72-.09-57.44-.1-86.16C237.33,185.78,237.18,184.21,237.1,182.63Z"/></svg>