<svg id="Layer_1" data-name="Layer 1" xmlns="http://www.w3.org/2000/svg" viewBox="0 0 675.51 279.54"><defs><style>.cls-1{fill:#fff;}</style></defs><path class="cls-1" d="M98.58,5.67A138.21,138.21,0,0,1,147,14.74c6.35,2.37,12.33,5.8,18.66,9.44,1.48.85,3,1.69,4.43,2.52a1.45,1.45,0,0,1,.51.75c.16,20.52.15,41.38.14,61.58-13.9-19.92-32.41-32.18-55.22-36.51A100,100,0,0,0,97,50.73c-21.64,0-41.22,7.72-58.28,23L37.15,72C33,67.58,29,63.37,25,59.16c-5.8-6-11.77-12-17.75-17.82C27.48,23.37,49.67,12.4,75,7.82A131.52,131.52,0,0,1,98.58,5.67m438.65.12a122.18,122.18,0,0,1,21.12,1.8c25.13,4.39,47.33,15.14,67.86,32.87l.38.34L594.85,72.88C578.24,58.15,559,50.7,537.57,50.7a100.18,100.18,0,0,0-19.3,1.94c-22.75,4.47-41.14,16.8-54.87,36.73,0-4.68,0-9.34,0-13.92,0-15,0-30.58-.06-45.87,0-2,.23-2.61,2.46-4,13.5-8.35,26.38-13.69,39.39-16.33a160.4,160.4,0,0,1,32-3.46M186.71,16.3C228.48,72,270.27,127.69,312.59,184.08l4.53,6,4.53-6L447.59,16.43l0,30.52c0,30.83-.08,62.72.09,94.09A87.92,87.92,0,0,0,507,223.55a90.63,90.63,0,0,0,29.59,5c34.52,0,65.43-20.24,80.68-52.84.74-1.61,1.48-3.19,2.6-5.59l3.58-7.63-8.42-.44-2.31-.13c-1.53-.1-2.85-.18-4.21-.18l-13.84,0-21.49,0c-12.3,0-22.37,0-31.62.11.15-12.9.15-27.05,0-44.41,20.9.06,42.11.09,63,.09,21.18,0,42.64,0,63.83-.09.14,2.89.3,5.81.45,8.64.18,3.35.37,6.81.52,10.2,0,1.25.12,2.5.19,3.76a94.36,94.36,0,0,1,.21,9.87c-1.36,27.69-11.67,53.07-30.66,75.44-17.54,20.67-37,34.17-59.6,41.26h-.06a135.11,135.11,0,0,1-32.7,6.4c-3.71.21-7.36.32-10.85.32-20.36,0-37.93-3.54-53.74-10.81-21.73-10-39.73-24.79-55-45.33-11.09-14.87-18.5-32-22.64-52.49L402,152.3l-7.59,10.14-15.82,21.15-14.22,18.94c-15.5,20.65-31.51,42-47.17,63.07-16-21.37-32.13-43-48.09-64.33L240.34,162.9l-6.71-9-3.25,10.71-1.48,4.81c-1,3.27-2,6.36-2.83,9.48-6.36,22.94-19.58,43.17-40.42,61.84a124.62,124.62,0,0,1-56.3,29.37,136.2,136.2,0,0,1-55,1.3c-25.3-4.69-47.32-15.68-67.24-33.59q15.84-16,31.63-32l1.51,1.15c3.89,3,7.56,5.76,11.57,8.31a82.76,82.76,0,0,0,45.2,12.91c3.14,0,6.39-.15,9.64-.46,30.53-2.91,54.17-18.9,70.28-47.52,6.64-11.82,9.73-25.41,9.73-42.78V16.3M402.34,207c9.91,19.77,24.28,36.86,43.86,52.18,1.49,1.16,1.48,1.44,1.43,2.4-.11,2.25-.09,4.46-.07,6.6,0,1.86,0,3.64,0,5.38-15.06.15-30.33.15-45.19.15V207m-170.68,1v2.55c0,20.62,0,41.94.1,62.91v.35h-.07c-6.88-.13-13.89-.2-21.43-.2s-15.17.06-23.65.2c0-.15,0-.31-.06-.5-1-9.13,1.48-14.72,9-20.62,14.64-11.52,26.74-26.51,36.12-44.69M98.58,0A136.87,136.87,0,0,0,74,2.24c-27.66,5-51.25,17.37-71.91,36.08C-.69,40.81-.24,42,2,44.18q9.59,9.3,18.88,18.92c5.82,6,11.48,12.15,17.57,18.62C55.77,64.53,75.46,56.4,97,56.4a94.33,94.33,0,0,1,17.47,1.69c28.8,5.47,48.36,23.83,61.26,50.91a20.33,20.33,0,0,0,.67-3c0-26.35.07-52.7-.14-79a7.08,7.08,0,0,0-3.18-5.07c-7.89-4.43-15.68-9.31-24.1-12.45A143.12,143.12,0,0,0,98.58,0ZM537.23.12a167.41,167.41,0,0,0-33.15,3.57c-14.76,3-28.39,9.12-41.24,17.07-3.56,2.21-5.17,4.53-5.15,8.84.17,25.17,0,50.33.05,75.5a29.47,29.47,0,0,0,.8,4.27c12.71-27.18,32.18-45.54,60.82-51.17a94.42,94.42,0,0,1,18.21-1.83c21.39,0,40.8,8,57.43,24.41l39.7-40.12c-1.59-1.49-3.12-3-4.75-4.46C609.46,18.49,586.29,6.71,559.32,2A127.63,127.63,0,0,0,537.23.12ZM451.9,1.25,317.12,180.68C272,120.55,227.47,61.19,182.94,1.82l-1.45.61c-.15,2.1-.44,4.2-.45,6.31V137.52c0,14-2.08,27.68-9,40-14.49,25.74-35.77,41.78-65.88,44.65-3.06.29-6.1.44-9.1.44a76.84,76.84,0,0,1-42.16-12c-5.61-3.57-10.77-7.84-16.67-12.18Q19.8,217.06,1.3,235.72c-1.82,1.82-1.75,2.87.33,4.79,20.5,18.94,44.07,31.4,71.73,36.52a141.63,141.63,0,0,0,57.27-1.35A129.65,129.65,0,0,0,189.43,245c19.8-17.74,34.9-38.57,42.1-64.55,1.23-4.46,2.65-8.82,4.27-14.16l28.76,38.37q24.75,33.06,49.44,66.14c1.26,1.7,2.19,2.64,3.17,2.64s1.88-.83,3.21-2.64c20.77-28,41.79-55.9,62.73-83.82l15.83-21.16c4.2,20.74,11.71,38.75,23.66,54.76C437.8,241,456.51,257,479.81,267.68c18,8.3,36.89,11.33,56.1,11.33,3.72,0,7.46-.12,11.21-.33a141.08,141.08,0,0,0,34.1-6.67c25-7.86,45.34-23.11,62.22-43,19.3-22.74,30.53-48.85,32-78.83.24-4.7-.2-9.44-.4-14.15-.29-6.55-.7-13.09-1-19.63-.14-3.72-2-4.64-5.51-4.64h-.06q-32,.09-63.89.09t-63.88-.09c-3.89,0-4.87,1.4-4.83,5,.14,15.21.19,30.42,0,45.63-.06,4,1.17,5.12,5,5.12h.15q16.05-.12,32.11-.11,17.69,0,35.32,0c1.77,0,3.54.16,6.24.3-1.13,2.41-1.87,4-2.62,5.62-14.51,31-43.7,49.55-75.53,49.55a85.22,85.22,0,0,1-27.75-4.72A82.16,82.16,0,0,1,453.32,141c-.24-44.78-.06-89.57-.06-134.36V1.51l-1.36-.26ZM397.76,182.13H397c-.12,1.79-.33,3.58-.33,5.36v87.16c0,2.53.14,4.76,3.6,4.76h0c16.55,0,33.11,0,49.66-.18,1.1,0,3-2,3.12-3.19.37-4.7,0-9.45.22-14.17.17-3.23-1.05-5.14-3.6-7.13-18.3-14.32-33.32-31.45-43.41-52.55-3.11-6.51-5.69-13.33-8.52-20v0ZM236,182.46c-.84,2.63-1.54,5.32-2.56,7.88-9,22.76-22.27,42.86-41.43,57.94-9.25,7.27-12.25,14.84-11.12,25.67.4,3.92,1.18,5.58,5.31,5.58h.26c7.91-.13,15.85-.2,23.78-.2q10.67,0,21.32.2H232c4.48,0,5.44-1.72,5.42-6.06-.18-28.72-.09-57.44-.1-86.16,0-1.54-.15-3.11-.23-4.69v0l-1.08-.15Z"/></svg>